<svg width="98" height="53" viewBox="0 0 98 53" fill="none" xmlns="http://www.w3.org/2000/svg">
<g clip-path="url(#clip0)">
<path d="M26.5846 3.61127C26.5846 4.01964 26.5283 4.46404 26.4196 4.94848C26.3109 5.43292 26.2063 5.67714 26.1057 5.67714C26.0252 5.67714 25.989 5.63711 25.989 5.56104C25.989 5.53701 25.997 5.50098 26.0131 5.45694C26.2264 4.90845 26.3311 4.31991 26.3311 3.68734C26.3311 2.70245 26.0373 1.90973 25.4457 1.31319C24.8541 0.716649 24.0774 0.416377 23.1076 0.416377C21.8077 0.416377 20.4717 0.840761 19.0954 1.69353C20.194 2.50627 20.7453 3.45513 20.7453 4.54412C20.7453 6.2897 19.5541 7.32263 17.1717 7.65093C19.1275 8.33155 20.1055 9.57667 20.1055 11.3943C20.1055 12.7395 19.53 13.9166 18.379 14.9255C17.2281 15.9344 15.8799 16.4389 14.3426 16.4389C13.6022 16.4389 13.0146 16.2507 12.58 15.8704C12.1454 15.49 11.924 14.9776 11.924 14.329C11.924 13.3281 12.3868 12.3352 13.3084 11.3543C14.23 10.3734 15.1596 9.88095 16.0972 9.88095C16.6164 9.88095 17.0389 10.0451 17.3689 10.3694C17.6989 10.6937 17.8639 11.1101 17.8639 11.6185C17.8639 11.9228 17.7714 12.3031 17.5822 12.7556C17.3931 13.208 17.2401 13.4362 17.1234 13.4362C17.0349 13.4362 16.9947 13.4041 16.9947 13.3441C16.9947 13.3121 17.0108 13.268 17.043 13.204C17.4534 12.6114 17.6546 12.0749 17.6546 11.5985C17.6546 11.1541 17.5098 10.7938 17.22 10.5175C16.9303 10.2453 16.548 10.1052 16.0771 10.1052C15.1918 10.1052 14.3225 10.5696 13.4774 11.5024C12.6323 12.4313 12.2057 13.3841 12.2057 14.353C12.2057 14.8695 12.3828 15.2979 12.7369 15.6422C13.0911 15.9865 13.5297 16.1586 14.0569 16.1586C15.2562 16.1586 16.3588 15.5781 17.3569 14.4171C18.3549 13.256 18.8579 11.9788 18.8579 10.5856C18.8579 9.28841 18.2301 8.33155 16.9705 7.72299L16.2864 7.80707C16.0972 7.83109 15.9081 7.8431 15.719 7.8431C15.1234 7.8431 14.8215 7.74702 14.8215 7.55084C14.8215 7.41071 15.071 7.33865 15.566 7.33865C15.9202 7.33865 16.387 7.41071 16.9705 7.55084C17.7875 7.29861 18.4354 6.86221 18.9102 6.23765C19.3851 5.61308 19.6225 4.89243 19.6225 4.07969C19.6225 3.29899 19.3207 2.59035 18.713 1.95777C16.9906 3.27096 15.3729 5.50098 13.8557 8.64383C12.9221 10.5736 12.0649 11.9748 11.2842 12.8436C10.5276 13.6804 9.45713 14.4411 8.06472 15.1297C6.4228 15.9264 4.95795 16.3268 3.66615 16.3268C2.61178 16.3268 1.7385 16.0866 1.03827 15.6061C0.350115 15.1137 0 14.5131 0 13.7925C0 13.3921 0.120729 13.0478 0.358164 12.7596C0.599622 12.4713 0.881324 12.3272 1.21132 12.3272C1.69021 12.3272 1.93167 12.5914 1.93167 13.1239C1.93167 13.3881 1.85118 13.6163 1.69021 13.8045C1.52924 13.9927 1.33205 14.0848 1.09461 14.0848C0.684133 14.0848 0.490966 13.8726 0.507063 13.4522C0.515112 13.28 0.499014 13.196 0.458771 13.196C0.334018 13.196 0.269629 13.4041 0.269629 13.8165C0.269629 14.4651 0.591574 15.0056 1.23144 15.434C1.8713 15.8624 2.68019 16.0786 3.65407 16.0786C5.37648 16.0786 6.93389 15.446 8.33435 14.1768C8.93799 13.6283 9.46518 13.0558 9.9159 12.4593C10.3666 11.8627 11.3888 10.3414 12.9945 7.90316C13.7712 6.7381 14.7089 5.55303 15.7994 4.34794C16.89 3.14285 17.8076 2.28607 18.548 1.77761C17.3045 0.736667 15.5057 0.216196 13.1474 0.216196C9.83139 0.216196 6.94596 1.40928 4.49515 3.79544C2.483 5.74921 1.47692 7.59087 1.47692 9.32044C1.47692 10.1972 1.75862 10.8939 2.32605 11.4063C2.89348 11.9188 3.6581 12.179 4.62393 12.179C6.20549 12.179 7.83533 11.4263 9.52152 9.91698C11.2077 8.40761 12.0488 6.94229 12.0488 5.517C12.0488 4.38397 11.4612 3.81546 10.2902 3.81546C9.11909 3.81546 7.8635 4.46404 6.52341 5.75321C5.18331 7.04638 4.51125 8.26348 4.51125 9.40452C4.51125 9.68477 4.60381 9.92899 4.79295 10.1292C4.9821 10.3294 5.20343 10.4334 5.45294 10.4334C5.58574 10.4575 5.65416 10.4895 5.65416 10.5255C5.65416 10.5976 5.57769 10.6296 5.42879 10.6296C5.05051 10.6296 4.73259 10.4615 4.47503 10.1212C4.21748 9.78086 4.08467 9.36448 4.08467 8.87204C4.08467 7.65894 4.75673 6.47787 6.10085 5.32482C7.44497 4.17178 8.82531 3.59526 10.2378 3.59526C11.59 3.59526 12.2661 4.21582 12.2661 5.46095C12.2661 6.97832 11.4049 8.51171 9.68249 10.0571C7.96009 11.6025 6.26183 12.3792 4.58771 12.3792C3.49713 12.3792 2.61983 12.0509 1.96386 11.3983C1.3079 10.7457 0.977907 9.87294 0.977907 8.77595C0.977907 6.56194 2.23349 4.54412 4.74466 2.71846C7.2679 0.912827 10.0447 0 13.0871 0C15.3729 0 17.3166 0.512464 18.9102 1.53739C20.3469 0.644584 21.7393 0.200181 23.0834 0.200181C24.1378 0.200181 24.9829 0.512464 25.6228 1.13703C26.2667 1.7616 26.5846 2.58634 26.5846 3.61127Z" fill="white"/>
<path d="M27.832 12.1469C27.832 12.1709 27.7596 12.271 27.6187 12.4512L27.1117 13.0837C25.4818 15.0815 24.0854 16.0824 22.9224 16.0824C22.371 16.0824 21.9082 15.8863 21.534 15.4899C21.1597 15.0936 20.9746 14.6011 20.9746 14.0046C20.9746 12.5953 21.9606 11.3582 23.9325 10.2852C24.9707 9.72068 25.8159 9.44043 26.4678 9.44043C26.7495 9.44043 26.9909 9.52451 27.1922 9.69266C27.3934 9.86081 27.494 10.065 27.494 10.3092C27.494 10.8737 27.1238 11.3502 26.3873 11.7465C25.6468 12.1429 24.4154 12.5112 22.6849 12.8555C22.1497 13.6603 21.8841 14.3329 21.8841 14.8734C21.8841 15.546 22.2503 15.8823 22.9827 15.8823C24.2263 15.8823 25.7474 14.6772 27.5503 12.263C27.6429 12.1389 27.7234 12.0748 27.7878 12.0748C27.8159 12.0828 27.832 12.1068 27.832 12.1469ZM26.834 9.96891C26.834 9.71668 26.6972 9.59257 26.4195 9.59257C26.001 9.59257 25.4537 9.88083 24.7736 10.4533C24.0934 11.0299 23.4294 11.7745 22.7735 12.6874C23.9043 12.3991 24.8661 11.9907 25.6509 11.4623C26.4396 10.9378 26.834 10.4373 26.834 9.96891Z" fill="white"/>
<path d="M32.1744 9.44095L32.0819 9.61711H30.5366L27.9087 14.0852C27.5867 14.6256 27.4258 15.054 27.4258 15.3743C27.4258 15.7266 27.6109 15.9028 27.9811 15.9028C28.6975 15.9028 29.9047 14.6617 31.607 12.1794C31.6634 12.1034 31.7076 12.0633 31.7479 12.0633C31.7962 12.0633 31.8203 12.0873 31.8203 12.1354C31.8123 12.1594 31.772 12.2235 31.7036 12.3236L31.1965 13.0162C29.7156 15.058 28.6049 16.083 27.8564 16.083C27.4861 16.083 27.1763 15.9508 26.9308 15.6826C26.6853 15.4144 26.5605 15.0861 26.5605 14.6857C26.5605 14.2173 26.7698 13.6287 27.1843 12.9281L29.1643 9.62112H27.961L28.0777 9.44496H29.2568L30.6372 7.1709C30.8746 7.23496 31.0959 7.26298 31.3092 7.26298C31.5306 7.26298 31.7559 7.23095 31.9934 7.1709L30.6372 9.44496H32.1744V9.44095Z" fill="white"/>
<path d="M40.1017 12.1346C40.1017 12.2987 39.5263 13.0594 38.3793 14.4126C37.4497 15.5257 36.7173 16.0822 36.1821 16.0822C35.8199 16.0822 35.5261 15.946 35.2967 15.6778C35.0673 15.4095 34.9546 15.0692 34.9546 14.6649C34.9546 14.2445 35.0794 13.7841 35.3329 13.2916C34.5482 14.3846 33.9445 15.1253 33.53 15.5096C33.1115 15.894 32.7091 16.0862 32.3147 16.0862C31.8962 16.0862 31.5501 15.91 31.2644 15.5537C30.9786 15.1974 30.8418 14.7489 30.8418 14.2125C30.8418 12.7111 31.9082 11.3819 34.0371 10.2248C34.9707 9.70838 35.7273 9.45215 36.3028 9.45215C36.7897 9.45215 37.0352 9.68836 37.0352 10.1568C37.0352 10.2889 37.003 10.4651 36.9427 10.6853L37.5423 9.54824C37.7797 9.60429 37.9849 9.63231 38.166 9.63231C38.3793 9.63231 38.653 9.60429 38.991 9.54824L36.9024 12.9713C36.178 14.1764 35.8158 14.9691 35.8158 15.3535C35.8158 15.7218 35.9688 15.906 36.2746 15.906C36.5885 15.906 37.0916 15.5457 37.7878 14.833C38.4799 14.1164 39.1842 13.2316 39.9005 12.1826C39.9488 12.1066 39.9891 12.0665 40.0293 12.0665C40.0776 12.0625 40.1017 12.0865 40.1017 12.1346ZM36.8541 10.1928C36.8541 9.80847 36.677 9.6163 36.3229 9.6163C35.5985 9.6163 34.6488 10.3209 33.4737 11.7262C32.2986 13.1355 31.711 14.2725 31.711 15.1413C31.711 15.6498 31.9404 15.902 32.3952 15.902C32.9385 15.902 33.8761 15.0052 35.2122 13.2156C36.3068 11.7502 36.8541 10.7413 36.8541 10.1928Z" fill="white"/>
<path d="M65.0405 11.3945C64.9761 10.9461 64.7749 10.5657 64.469 10.3255C64.1632 10.0813 63.7406 10.0012 63.3583 10.0813C63.3986 9.97719 63.4267 9.86909 63.4388 9.75298C63.471 9.42068 63.3704 9.09639 63.1611 8.87218C62.9398 8.63597 62.6098 8.52387 62.2718 8.57592C62.0866 8.60394 61.9136 8.67601 61.7607 8.79211C61.817 8.3397 61.7285 7.88329 61.3019 7.4589C61.0162 7.17465 60.5614 7.06254 60.0866 7.15863C59.7606 7.22269 59.4588 7.37082 59.1851 7.52296C59.1006 6.84235 58.5372 6.2378 57.845 6.14171C57.1649 6.04562 56.4687 6.462 56.191 7.07856C56.0703 6.93443 55.9455 6.80231 55.7966 6.69821C55.523 6.50604 55.2131 6.43798 54.9435 6.51405C54.6859 6.58611 54.4646 6.78229 54.3358 7.06254C54.3077 7.1226 54.2835 7.18265 54.2674 7.24671C53.8569 6.89039 53.209 6.81432 52.7422 7.09858C52.3237 7.35481 52.0983 7.87128 52.1547 8.35572C51.8247 8.23561 51.4142 8.29166 51.1164 8.53588C50.7622 8.82414 50.5852 9.32459 50.6616 9.84106C50.722 10.2414 50.9232 10.6538 51.2653 11.0622C51.6838 11.5626 52.211 11.963 52.7221 12.3513L52.867 12.4594C53.4022 12.8678 53.9575 13.3122 54.3399 13.8727C54.7423 14.4612 54.8872 15.1098 54.7544 15.6703C54.7544 15.6743 54.7503 15.6824 54.7503 15.6904C54.7503 15.6984 54.7463 15.7024 54.7463 15.7104C53.9294 16.6672 52.9474 17.516 51.7643 18.2727C51.9494 17.8043 52.0822 17.2558 52.1426 16.6793C52.7583 16.2709 53.0239 15.4341 52.9595 14.7976C52.9515 14.7215 52.8831 14.6654 52.8026 14.6694C52.7261 14.6774 52.6657 14.7455 52.6738 14.8256C52.7221 15.306 52.5571 15.9146 52.1667 16.2949C52.2029 15.4381 52.0701 14.5533 51.712 13.8167C51.8287 13.7086 51.9051 13.5564 51.9092 13.3843C51.9172 13.048 51.6436 12.7677 51.3095 12.7597C51.1446 12.7557 50.9916 12.8158 50.8709 12.9279C50.7542 13.04 50.6858 13.1921 50.6818 13.3562C50.6737 13.6765 50.9192 13.9448 51.2331 13.9768C51.2492 13.9768 51.2653 13.9808 51.2814 13.9808C51.3458 13.9808 51.4061 13.9728 51.4625 13.9528C52.1466 15.3701 51.9414 17.3639 51.3256 18.5409C50.0379 19.3136 48.5247 19.9903 46.746 20.5988C46.6494 20.6308 46.5528 20.6589 46.4562 20.6909C47.7561 18.577 47.5468 15.342 46.6373 13.2441C46.6293 13.2241 46.6172 13.2081 46.6011 13.1961C46.5971 13.1921 46.589 13.1921 46.585 13.1881C46.577 13.1801 46.5649 13.1761 46.5568 13.1721C46.5528 13.1721 46.5488 13.1721 46.5448 13.1721C46.5407 13.1721 46.5407 13.1681 46.5367 13.1681C46.5327 13.1681 46.5287 13.1681 46.5206 13.1681C46.5045 13.1681 46.4925 13.1681 46.4764 13.1681C46.4723 13.1681 46.4643 13.1721 46.4603 13.1721C46.4442 13.1761 46.4321 13.1841 46.42 13.1961C46.416 13.2001 46.412 13.2001 46.412 13.2001C46.4079 13.2041 46.4079 13.2041 46.4039 13.2081C46.4039 13.2081 46.4039 13.2081 46.3999 13.2121C45.5145 14.0449 44.9431 15.4101 44.8747 16.8634C44.8063 18.3247 45.1966 19.8742 45.8848 20.8791C44.7137 21.2474 43.5225 21.5677 42.3394 21.868C42.0094 21.952 41.6794 22.0361 41.3534 22.1202C40.5043 22.3364 39.6391 22.5526 38.7779 22.7848C39.1561 22.4004 39.4861 21.912 39.7517 21.3435C40.3031 21.0032 40.7618 20.6068 41.128 20.1584C41.128 20.1584 41.1321 20.1584 41.1321 20.1544C41.1441 20.1424 42.5366 19.0214 43.7076 19.4378C43.7801 19.4658 43.8646 19.4257 43.8887 19.3537C43.9169 19.2816 43.8767 19.1975 43.8042 19.1735C42.9873 18.8853 42.118 19.2256 41.5546 19.5378C41.9691 18.8092 42.1824 17.9684 42.1864 17.0156C42.5768 16.9315 42.8746 16.5912 42.8826 16.1748C42.8867 15.9386 42.8022 15.7184 42.6372 15.5462C42.4722 15.3781 42.2549 15.282 42.0174 15.278C41.78 15.274 41.5587 15.3581 41.3856 15.5222C41.2166 15.6864 41.12 15.9026 41.116 16.1388C41.112 16.375 41.1965 16.5952 41.3615 16.7673C41.5063 16.9155 41.6955 17.0076 41.9007 17.0316C41.8886 18.6851 41.2488 19.9462 39.9489 20.8711C40.1944 20.2145 40.3433 19.5138 40.3715 18.8452C40.6612 18.7772 40.8785 18.5249 40.8866 18.2207C40.8906 18.0445 40.8262 17.8763 40.7015 17.7522C40.5807 17.6241 40.4157 17.5561 40.2387 17.548C40.0616 17.544 39.8926 17.6081 39.7678 17.7322C39.6391 17.8523 39.5666 18.0165 39.5626 18.1926C39.5586 18.3688 39.623 18.5369 39.7477 18.6611C39.8403 18.7571 39.961 18.8212 40.0898 18.8452C40.0536 19.6219 39.8523 20.4467 39.5143 21.1833C39.1642 21.948 38.6933 22.5646 38.1501 22.9569C37.2768 23.2052 36.4116 23.4734 35.5584 23.7777C35.5463 23.7817 35.5383 23.7817 35.5262 23.7897C35.1359 23.9298 34.7495 24.07 34.3672 24.2261C34.0251 24.3662 33.6952 24.5103 33.3692 24.6625C33.6187 24.3302 33.8119 23.9338 33.9406 23.4734C34.3149 22.1602 34.0734 20.6589 33.3169 19.5579C33.3128 19.5539 33.3088 19.5539 33.3088 19.5499C33.3008 19.5418 33.2967 19.5338 33.2847 19.5298C33.2766 19.5258 33.2726 19.5178 33.2646 19.5138C33.2605 19.5138 33.2565 19.5098 33.2525 19.5058C33.2444 19.5018 33.2404 19.5058 33.2324 19.5018C33.2283 19.5018 33.2203 19.4978 33.2163 19.4978C33.2122 19.4978 33.2082 19.4978 33.2082 19.4978C33.1961 19.4978 33.1841 19.4978 33.172 19.5018C33.168 19.5018 33.1639 19.5018 33.1559 19.5058C33.1438 19.5098 33.1318 19.5178 33.1197 19.5258C33.1157 19.5298 33.1116 19.5298 33.1076 19.5338C31.9808 20.4747 31.3007 21.912 31.2886 23.3773C31.2846 23.9498 31.3892 24.7586 31.8762 25.4392C29.6547 26.7123 27.868 28.3218 26.713 30.1154C26.6687 30.1795 26.6888 30.2676 26.7572 30.3116C26.7774 30.3236 26.7975 30.3316 26.8176 30.3316C26.8699 30.3356 26.9222 30.3156 26.9504 30.2676C28.4756 27.8934 31.1478 25.8436 34.4718 24.4943C34.8099 24.3582 35.1479 24.2301 35.49 24.106C36.0977 26.304 37.6712 27.5091 40.4318 27.8934H40.4359C40.46 27.8974 40.4842 27.8894 40.5083 27.8814C40.5164 27.8774 40.5204 27.8734 40.5244 27.8694C40.5325 27.8614 40.5445 27.8574 40.5526 27.8494C40.5566 27.8454 40.5566 27.8374 40.5606 27.8334C40.5646 27.8294 40.5687 27.8294 40.5687 27.8254C40.5727 27.8173 40.5727 27.8133 40.5767 27.8053C40.5807 27.7973 40.5807 27.7933 40.5848 27.7853C40.5888 27.7693 40.5888 27.7573 40.5848 27.7413C40.5848 27.7373 40.5848 27.7333 40.5848 27.7293C40.2829 26.1999 39.5022 24.4063 36.1862 23.8658C37.9086 23.2852 39.6833 22.8408 41.4178 22.4004C41.7397 22.3204 42.0657 22.2363 42.3917 22.1522C43.108 22.0281 43.8565 22.1082 44.6131 22.3924C45.6433 22.9249 45.7681 24.8026 45.3576 25.8436C45.3455 25.8436 45.3375 25.8396 45.3254 25.8396C44.9028 25.8315 44.5527 26.1638 44.5447 26.5842C44.5366 26.9846 44.8385 27.3169 45.2328 27.3569C45.253 27.3609 45.2731 27.3609 45.2932 27.3609C45.7158 27.3689 46.0659 27.0366 46.0739 26.6163C46.082 26.308 45.8969 26.0397 45.6353 25.9156C45.9733 25.0188 45.9532 23.6336 45.3978 22.7648C45.9492 23.0771 46.4683 23.4894 46.911 23.9739C46.8265 24.082 46.7742 24.2141 46.7701 24.3622C46.7621 24.7065 47.0237 24.9948 47.3617 25.0268C47.3778 25.0268 47.3979 25.0308 47.414 25.0308C47.5911 25.0348 47.7561 24.9708 47.8849 24.8467C48.0136 24.7265 48.0821 24.5624 48.0861 24.3862C48.0901 24.2101 48.0257 24.0459 47.901 23.9178C47.7802 23.7897 47.6152 23.7216 47.4382 23.7176C47.3255 23.7136 47.2209 23.7457 47.1243 23.7937C46.4482 23.053 45.595 22.4605 44.7137 22.1322C44.3274 21.9841 43.937 21.892 43.5547 21.8439C44.428 21.6117 45.2972 21.3635 46.1544 21.0872H46.1584C46.3798 21.0152 46.6011 20.9511 46.8224 20.8751C47.4341 20.6669 48.0096 20.4507 48.5569 20.2225C48.6736 20.7269 49.1928 22.1282 51.4464 22.5606C51.8166 22.6326 52.1587 22.6807 52.4686 22.7127C55.032 22.973 55.7363 22.0241 55.7685 21.9761C55.7725 21.972 55.7725 21.964 55.7765 21.956C55.7806 21.948 55.7846 21.944 55.7846 21.936C55.7886 21.924 55.7886 21.912 55.7886 21.9C55.7886 21.896 55.7886 21.892 55.7886 21.888C55.7886 21.872 55.7846 21.8519 55.7765 21.8359C55.7765 21.8319 55.7725 21.8279 55.7685 21.8239C55.7645 21.8159 55.7564 21.8039 55.7484 21.7959C54.372 20.4267 51.7764 19.5819 49.6918 19.718C50.3276 19.4177 50.9192 19.1055 51.4705 18.7772C51.4745 18.7732 51.4786 18.7732 51.4866 18.7691C51.8649 18.5409 52.2271 18.3047 52.5692 18.0605C53.4062 17.4199 54.4244 17.2558 55.1326 17.2278C55.6276 17.2077 56.1387 17.2438 56.6297 17.2798C56.7383 17.2878 56.851 17.2958 56.9637 17.2998C56.9677 17.2998 56.9677 17.2998 56.9718 17.2998C57.3621 17.3078 57.9617 17.5 58.3038 17.8363C58.3038 17.8363 58.3038 17.8403 58.3078 17.8403C58.3561 18.0565 58.2354 19.1495 57.6559 20.0663C57.4587 20.3786 57.2977 20.831 57.4305 21.1633C57.4828 21.2914 57.6036 21.4636 57.8893 21.5357C57.9175 21.5437 57.9456 21.5477 57.9738 21.5517C58.179 21.5717 58.3642 21.4716 58.501 21.3195C58.5131 21.3395 58.5292 21.3635 58.5453 21.3835C58.6821 21.5597 58.9235 21.6558 59.169 21.6397C59.3904 21.6237 59.5755 21.5116 59.7365 21.2994C59.8813 21.1073 59.9296 20.851 59.9377 20.6268C60.0664 20.7069 60.2153 20.763 60.3642 20.771C60.6057 20.787 60.8109 20.6789 60.9236 20.4787C61.1289 20.1104 60.9558 19.5899 60.7224 19.2256C60.4809 18.8452 59.5513 17.7522 58.4728 17.6081C58.3601 17.504 58.2273 17.4119 58.0865 17.3359C58.7505 17.3158 59.3139 17.2037 59.7928 16.9995C59.8008 17.0076 59.8049 17.0196 59.8129 17.0276C59.9256 17.1477 60.0785 17.2197 60.2395 17.2358C60.2596 17.2358 60.2757 17.2398 60.2958 17.2398C60.6781 17.2478 60.992 16.9475 61.0001 16.5672C61.0041 16.383 60.9357 16.2108 60.8069 16.0787C60.6781 15.9466 60.5091 15.8705 60.324 15.8665C59.9417 15.8585 59.6278 16.1588 59.6197 16.5391C59.6197 16.6112 59.6318 16.6833 59.6519 16.7513C59.1409 16.9635 58.5332 17.0636 57.7847 17.0596C57.4104 17.0556 57.0281 17.0276 56.6579 17.0036C56.1588 16.9675 55.6397 16.9315 55.1286 16.9515C54.7141 16.9675 54.195 17.0316 53.6638 17.1997C54.1306 16.7874 54.5612 16.355 54.9515 15.8985C55.9254 15.3621 57.0241 15.1819 58.0664 15.0458C58.6096 14.9737 59.173 14.9537 59.7163 14.9377C60.1188 14.9257 60.5373 14.9097 60.9478 14.8736C62.1591 14.7695 63.0485 14.4933 63.7487 14.0008C64.6783 13.3522 65.1773 12.3353 65.0405 11.3945ZM51.2935 13.6926C51.1124 13.6926 50.9675 13.5404 50.9715 13.3562C50.9715 13.2682 51.0077 13.1881 51.0721 13.128C51.1365 13.068 51.221 13.036 51.3055 13.036C51.3136 13.036 51.3216 13.036 51.3337 13.036C51.5027 13.052 51.6315 13.1961 51.6275 13.3683C51.6275 13.5524 51.4786 13.6966 51.2935 13.6926ZM41.4017 16.1428C41.4057 15.9826 41.4701 15.8345 41.5868 15.7264C41.7035 15.6143 41.8524 15.5582 42.0134 15.5622C42.0295 15.5622 42.0456 15.5622 42.0617 15.5662C42.2025 15.5823 42.3313 15.6423 42.4319 15.7464C42.5446 15.8625 42.6009 16.0107 42.5969 16.1708C42.5929 16.3309 42.5285 16.4791 42.4118 16.5872C42.2951 16.6993 42.1462 16.7553 41.9852 16.7513C41.8243 16.7473 41.6754 16.6833 41.5667 16.5672C41.458 16.451 41.3977 16.3029 41.4017 16.1428ZM39.8483 18.1926C39.8523 18.0925 39.8926 18.0005 39.965 17.9284C40.0375 17.8603 40.134 17.8203 40.2347 17.8243C40.2467 17.8243 40.2548 17.8243 40.2668 17.8243C40.3554 17.8323 40.4359 17.8723 40.5003 17.9364C40.5687 18.0085 40.6089 18.1045 40.6049 18.2046C40.6009 18.4128 40.4278 18.577 40.2186 18.573C40.1179 18.569 40.0254 18.5289 39.953 18.4569C39.8845 18.3888 39.8483 18.2927 39.8483 18.1926ZM33.667 23.3933C33.5302 23.8778 33.3209 24.2901 33.0472 24.6184C32.7977 24.9147 32.5281 25.1029 32.1901 25.223C32.2705 22.8208 32.9668 20.6869 33.2324 19.9582C33.8199 20.9631 33.993 22.2523 33.667 23.3933ZM32.8621 20.1624C32.5603 21.0552 32.0251 22.8929 31.9204 24.9548C31.6428 24.4103 31.5784 23.8177 31.5784 23.3733C31.5824 22.1922 32.0573 21.0312 32.8621 20.1624ZM35.8804 24.3942C36.5645 25.0428 38.0575 26.3881 39.7558 27.481C37.6873 27.0486 36.4599 26.0718 35.8804 24.3942ZM40.2387 27.445C38.3473 26.284 36.653 24.7386 35.989 24.102C37.808 24.3582 39.623 25.0308 40.2387 27.445ZM45.8003 26.6002C45.7962 26.8645 45.5749 27.0727 45.3093 27.0687C45.0477 27.0647 44.8344 26.8445 44.8385 26.5802C44.8425 26.316 45.0638 26.1078 45.3294 26.1118C45.591 26.1158 45.8043 26.336 45.8003 26.6002ZM47.4502 23.9899C47.4623 23.9899 47.4704 23.9899 47.4824 23.9899C47.571 23.9979 47.6515 24.0379 47.7158 24.102C47.7843 24.174 47.8205 24.2701 47.8205 24.3702C47.8205 24.4703 47.7762 24.5624 47.7038 24.6305C47.6313 24.6985 47.5347 24.7346 47.4341 24.7346C47.3335 24.7305 47.241 24.6905 47.1726 24.6184C47.1041 24.5464 47.0679 24.4503 47.0679 24.3502C47.0679 24.2501 47.1122 24.158 47.1846 24.09C47.2571 24.0259 47.3496 23.9859 47.4502 23.9899ZM46.2108 20.5508C45.8043 17.0796 46.2953 14.6414 46.5327 13.7366C47.2812 15.7664 47.3939 18.645 46.2108 20.5508ZM46.2108 13.8367C45.9653 14.8576 45.5588 17.1597 45.9009 20.3466C45.3938 19.4017 45.1041 18.0845 45.1604 16.8674C45.2167 15.7104 45.6031 14.6214 46.2108 13.8367ZM60.3361 16.1348C60.3481 16.1348 60.3562 16.1348 60.3683 16.1348C60.5775 16.1548 60.7385 16.3349 60.7345 16.5431C60.7305 16.7673 60.5453 16.9435 60.32 16.9395C60.2113 16.9395 60.1107 16.8914 60.0342 16.8154C59.9578 16.7393 59.9175 16.6352 59.9216 16.5271C59.9256 16.3069 60.1147 16.1308 60.3361 16.1348ZM60.5011 19.3697C60.6942 19.674 60.8311 20.0863 60.6942 20.3346C60.6339 20.4427 60.5373 20.4907 60.4045 20.4827C60.2073 20.4747 59.9819 20.3266 59.9175 20.1744C59.8894 20.1064 59.8129 20.0703 59.7405 20.0903C59.668 20.1144 59.6278 20.1864 59.6439 20.2585C59.6841 20.4267 59.7123 20.8751 59.5272 21.1233C59.4145 21.2714 59.3059 21.3435 59.169 21.3515C59.0161 21.3635 58.8672 21.3034 58.7907 21.2034C58.7304 21.1273 58.7143 21.0352 58.7505 20.9311C58.7746 20.859 58.7344 20.779 58.662 20.7549C58.5895 20.7309 58.509 20.767 58.4809 20.843C58.4084 21.0432 58.2153 21.3195 57.9819 21.2594C57.845 21.2234 57.7565 21.1593 57.7162 21.0552C57.6277 20.835 57.7565 20.4747 57.9175 20.2145C58.3642 19.5098 58.5614 18.7211 58.6096 18.2046C58.7948 18.557 58.8471 19.0614 58.6982 19.9742C58.6861 20.0503 58.7384 20.1224 58.8149 20.1344C58.8189 20.1344 58.8189 20.1344 58.8229 20.1344C58.8954 20.1424 58.9638 20.0903 58.9759 20.0183C59.0926 19.2976 59.1006 18.7892 58.9839 18.3808C59.1248 18.577 59.2535 18.8372 59.326 19.1815C59.338 19.2416 59.3904 19.2856 59.4507 19.2936C59.4668 19.2936 59.4789 19.2936 59.495 19.2896C59.5715 19.2736 59.6197 19.1975 59.6036 19.1215C59.5071 18.6651 59.3219 18.3368 59.1328 18.1045C59.8008 18.4609 60.328 19.1055 60.5011 19.3697ZM54.5974 7.17865C54.69 6.97847 54.8509 6.83033 55.024 6.78229C55.2091 6.73024 55.4385 6.78629 55.6357 6.92642C55.8208 7.05854 55.9697 7.24671 56.1307 7.4589C56.1629 7.50294 56.2192 7.52296 56.2755 7.51095C56.3279 7.49894 56.3721 7.4589 56.3842 7.40285C56.521 6.7943 57.1891 6.34189 57.8088 6.42197C58.4285 6.50604 58.9437 7.13061 58.9115 7.75117C58.9074 7.80322 58.9356 7.85126 58.9799 7.87928C59.0241 7.90731 59.0805 7.90731 59.1248 7.87928C59.4467 7.69512 59.7807 7.50294 60.1429 7.43088C60.4407 7.37082 60.8472 7.39885 61.1047 7.65508C61.7003 8.24362 61.5112 8.89621 61.2496 9.56882C60.5816 11.2744 58.336 13.108 56.69 14.2931C58.171 12.6356 58.5292 11.0982 58.5453 11.0141C58.5614 10.9381 58.5131 10.862 58.4366 10.846C58.3601 10.83 58.2837 10.878 58.2676 10.9541C58.2636 10.9781 57.7766 13.064 55.6035 14.9697C56.7222 12.9639 56.348 10.2254 56.3279 10.0933C56.3158 10.0172 56.2434 9.96117 56.1669 9.97318C56.0904 9.98519 56.0341 10.0573 56.0462 10.1333C56.0502 10.1654 56.4003 12.7397 55.4385 14.6654C55.4586 14.5613 55.4787 14.4612 55.4948 14.3732C55.6598 13.3282 55.4425 12.3433 55.189 11.4345C55.1286 11.2223 55.0642 11.0101 54.9998 10.7979C54.7101 9.83706 54.4123 8.84016 54.4646 7.81523C54.4727 7.63506 54.4968 7.39084 54.5974 7.17865ZM53.04 12.2272L52.8951 12.1151C52.3961 11.7388 51.885 11.3504 51.4866 10.87C51.1808 10.5017 50.9957 10.1373 50.9474 9.78902C50.887 9.37664 51.0238 8.96827 51.3015 8.74407C51.5953 8.50385 52.0581 8.51186 52.2915 8.76409C52.3398 8.81613 52.4162 8.82414 52.4766 8.7841C52.5329 8.74407 52.5531 8.668 52.5249 8.60394C52.3116 8.16755 52.4806 7.58302 52.8951 7.33079C53.3096 7.07856 53.9093 7.19066 54.203 7.57501C54.195 7.65909 54.1869 7.73515 54.1829 7.80722C54.1306 8.88019 54.4364 9.89711 54.7302 10.882C54.7946 11.0942 54.855 11.3024 54.9153 11.5146C55.1648 12.3914 55.3701 13.3402 55.2172 14.3331C55.2091 14.3732 55.2051 14.4132 55.197 14.4572C55.1729 12.1792 53.4424 10.898 53.4223 10.882C53.3579 10.838 53.2694 10.85 53.2251 10.914C53.1809 10.9781 53.1929 11.0662 53.2573 11.1102C53.3338 11.1663 54.8469 12.2913 54.9194 14.3331C54.8348 14.1169 54.7262 13.9047 54.5894 13.7006C54.1708 13.112 53.5954 12.6516 53.04 12.2272ZM51.5228 22.2723C49.6113 21.904 49.0559 20.835 48.895 20.3065C49.5992 20.7189 51.551 21.7398 54.0058 21.9921C54.4123 22.0321 54.8308 22.0521 55.2614 22.0441C54.7946 22.3244 53.7161 22.6967 51.5228 22.2723ZM55.3218 21.7599C52.3599 21.8319 49.8849 20.5588 49.06 20.0783C51.0077 19.706 53.7966 20.4547 55.3218 21.7599ZM63.6078 13.7566C62.9478 14.217 62.1027 14.4773 60.9437 14.5774C60.5413 14.6134 60.1268 14.6254 59.7284 14.6414C59.1771 14.6614 58.6096 14.6814 58.0503 14.7535C57.3822 14.8416 56.6458 14.9537 55.9335 15.1779C55.9858 15.1419 56.0381 15.1058 56.0945 15.0658C58.3118 13.8047 60.6983 13.8447 60.7264 13.8447C60.8029 13.8487 60.8713 13.7846 60.8713 13.7086C60.8753 13.6285 60.815 13.5644 60.7345 13.5644C60.6459 13.5604 59.1046 13.5364 57.3259 14.185C58.9316 12.9839 60.8834 11.2864 61.5152 9.67691C61.5474 9.59684 61.5796 9.51276 61.6078 9.42869C61.7687 9.10439 62.0223 8.90021 62.316 8.85617C62.5615 8.82014 62.799 8.90021 62.9559 9.06836C63.1088 9.23251 63.1853 9.47273 63.1611 9.72896C63.137 9.96117 63.0324 10.1654 62.8714 10.3015C62.8553 10.3135 62.8392 10.3255 62.8191 10.3415C62.7587 10.3896 62.7507 10.4776 62.7949 10.5377C62.8432 10.5977 62.9277 10.6098 62.9921 10.5657C63.0122 10.5537 63.0283 10.5377 63.0444 10.5257C63.4066 10.2654 63.9459 10.2735 64.292 10.5537C64.5374 10.7499 64.7024 11.0622 64.7588 11.4425C64.8795 12.2713 64.4288 13.1841 63.6078 13.7566Z" fill="white"/>
<path d="M70.2151 27.3372C70.2151 27.5334 70.0944 27.6295 69.8489 27.6295H69.6839C69.4384 27.5974 69.1326 27.5814 68.7664 27.5814C66.9594 27.5814 64.7783 28.3901 62.2228 30.0116C60.77 30.9364 59.5507 31.8813 58.5687 32.8502C57.5546 33.8431 55.8443 35.7968 53.4418 38.7035C50.5362 42.2147 48.2625 44.5688 46.6286 45.7659C46.0853 46.1662 45.7714 46.3624 45.6869 46.3624C45.6427 46.3624 45.6185 46.3464 45.6105 46.3144C45.6105 46.3064 45.7232 46.1903 45.9525 45.9621C46.9506 44.9531 47.9808 42.9874 49.0432 40.0687C49.9929 37.4624 50.7495 35.5606 51.3008 34.3635C51.8562 33.1665 52.4478 32.1696 53.0756 31.3688C53.2245 31.1807 53.3009 31.0766 53.3009 31.0525C53.2446 31.0365 53.1882 31.0686 53.1239 31.1446L53.0072 31.2607L52.7134 31.6251C52.2023 32.2576 51.003 33.811 49.1156 36.2853C46.1377 40.3009 43.5219 43.1875 41.2763 44.9491C40.065 45.89 39.3607 46.3584 39.1676 46.3584C39.1233 46.3424 39.0991 46.3184 39.0911 46.2863C39.0911 46.2623 39.1434 46.2063 39.244 46.1222C40.7853 44.7209 42.2622 42.619 43.6708 39.8165C45.0833 37.0139 45.7875 34.7719 45.7875 33.0984C45.7875 31.9574 45.5099 31.0525 44.9505 30.3839C44.3911 29.7153 43.6305 29.379 42.6647 29.379C40.6284 29.379 38.6082 30.5081 36.6 32.7701C34.5919 35.0281 33.5858 37.3102 33.5858 39.6083C33.5858 40.5612 33.8474 41.3339 34.3706 41.9184C34.8937 42.5029 35.5738 42.7992 36.4149 42.7992C38.1896 42.7992 39.8718 41.5901 41.4614 39.1759C42.4916 37.6025 43.0067 36.2052 43.0067 34.9761C43.0067 34.3956 42.8619 33.9312 42.5761 33.5788C42.2904 33.2265 41.9081 33.0504 41.4373 33.0504C41.1556 33.0504 40.8779 33.1184 40.6123 33.2545C40.3467 33.3907 40.2098 33.5308 40.2098 33.6709C40.2098 33.719 40.234 33.743 40.2823 33.743C40.3064 33.743 40.3467 33.735 40.399 33.719C40.5962 33.6869 40.725 33.6709 40.7893 33.6709C41.1435 33.6709 41.3206 33.8711 41.3206 34.2675C41.3206 34.5117 41.228 34.7199 41.0389 34.896C40.8497 35.0722 40.6284 35.1603 40.3789 35.1603C39.8919 35.1603 39.6464 34.9 39.6464 34.3756C39.6464 33.9592 39.8275 33.5989 40.1897 33.2906C40.5519 32.9823 40.9664 32.8262 41.4413 32.8262C41.9846 32.8262 42.4192 33.0223 42.7452 33.4107C43.0711 33.803 43.2361 34.3235 43.2361 34.9721C43.2361 36.4414 42.56 38.0989 41.2079 39.9446C39.7068 41.9784 38.1011 42.9954 36.3988 42.9954C35.4088 42.9954 34.5919 42.619 33.952 41.8623C33.3122 41.1057 32.9902 40.1528 32.9902 39.0037C32.9902 37.9268 33.28 36.8018 33.8555 35.6287C34.435 34.4556 35.2237 33.3907 36.2298 32.4298C38.4874 30.2478 40.6525 29.1588 42.725 29.1588C43.9444 29.1588 44.9666 29.6353 45.7956 30.5881C46.6246 31.541 47.0391 32.7141 47.0391 34.1033C47.0391 35.5967 46.4194 37.4143 45.1758 39.5442C43.9323 41.6782 42.4272 43.5118 40.6606 45.0452C40.4875 45.2014 40.403 45.2894 40.403 45.3055C40.4111 45.3375 40.4272 45.3535 40.4513 45.3535C40.6968 45.3535 41.4775 44.6729 42.7975 43.3117C44.6688 41.3779 47.196 38.3271 50.3793 34.1554C51.2928 32.9583 52.1862 31.8853 53.0675 30.9404C53.9488 29.9916 54.4921 29.5192 54.6933 29.5192C54.7416 29.5192 54.7658 29.5432 54.7658 29.5952C54.7658 29.6193 54.7416 29.6593 54.6933 29.7113C54.1984 30.3679 53.7959 31.0365 53.4901 31.7172C53.144 32.4899 52.6208 33.9472 51.9206 36.0811C51.1479 38.4112 50.4477 40.1888 49.8199 41.4099C49.1599 42.6711 48.3269 43.8081 47.3289 44.825C47.3128 44.857 47.2967 44.8851 47.2806 44.9091C47.2886 44.9331 47.3047 44.9491 47.3289 44.9571C47.4617 44.9571 48.0251 44.4447 49.015 43.4197C49.7072 42.7071 51.6389 40.4411 54.8141 36.6136C56.456 34.6358 57.9249 33.0704 59.2247 31.9253C60.5205 30.7803 61.9814 29.7554 63.5991 28.8586C65.8085 27.6214 67.7321 27.0049 69.378 27.0049C69.9334 27.0089 70.2151 27.117 70.2151 27.3372Z" fill="white"/>
<path d="M59.8086 41.4535C59.8086 41.4775 59.7362 41.5776 59.5953 41.7578L59.0882 42.3904C57.4584 44.3882 56.062 45.3891 54.8989 45.3891C54.3476 45.3891 53.8848 45.1929 53.5106 44.7965C53.1363 44.4002 52.9512 43.9077 52.9512 43.3112C52.9512 41.9019 53.9371 40.6648 55.909 39.5918C56.9473 39.0273 57.7924 38.7471 58.4444 38.7471C58.7261 38.7471 58.9675 38.8311 59.1687 38.9993C59.3699 39.1675 59.4706 39.3716 59.4706 39.6159C59.4706 40.1804 59.1003 40.6568 58.3639 41.0532C57.6234 41.4495 56.392 41.8178 54.6615 42.1622C54.1263 42.9669 53.8607 43.6395 53.8607 44.18C53.8607 44.8526 54.2269 45.1889 54.9593 45.1889C56.2028 45.1889 57.724 43.9838 59.5269 41.5696C59.6195 41.4455 59.6999 41.3815 59.7643 41.3815C59.7925 41.3895 59.8086 41.4135 59.8086 41.4535ZM58.8146 39.2755C58.8146 39.0233 58.6778 38.8992 58.4001 38.8992C57.9816 38.8992 57.4343 39.1875 56.7541 39.76C56.074 40.3325 55.41 41.0812 54.7541 41.994C55.8849 41.7057 56.8467 41.2974 57.6314 40.7689C58.4162 40.2404 58.8146 39.748 58.8146 39.2755Z" fill="white"/>
<path d="M70.5084 33.2465C67.5626 37.9067 65.7034 40.8854 64.9307 42.1826C64.154 43.5038 63.7636 44.3365 63.7636 44.6808C63.7636 45.0331 63.9246 45.2093 64.2466 45.2093C64.9629 45.2093 66.1782 43.9682 67.8966 41.4859C67.9449 41.4099 67.9851 41.3698 68.0254 41.3698C68.0737 41.3698 68.0978 41.3939 68.0978 41.4419C68.0898 41.4659 68.0495 41.53 67.9811 41.6301L67.4741 42.3227C65.9851 44.3645 64.8905 45.3895 64.1822 45.3895C63.82 45.3895 63.5262 45.2533 63.2968 44.9851C63.0674 44.7169 62.9548 44.3685 62.9548 43.9482C62.9548 43.5278 63.0956 43.0393 63.3773 42.4828C62.001 44.4206 60.9788 45.3935 60.3108 45.3935C59.8923 45.3935 59.5462 45.2173 59.2604 44.861C58.9747 44.5047 58.8379 44.0563 58.8379 43.5198C58.8379 42.2306 59.6427 41.0616 61.2565 40.0126C62.5362 39.1758 63.5423 38.7595 64.2747 38.7595C64.7617 38.7595 65.0071 38.9957 65.0071 39.4641C65.0071 39.6843 64.9387 39.9285 64.8059 40.2048L69.0154 33.1904C69.2729 33.2705 69.5305 33.3065 69.78 33.3065C69.8403 33.2945 70.0818 33.2785 70.5084 33.2465ZM64.8261 39.5482C64.8261 39.1318 64.6329 38.9276 64.2466 38.9276C63.5383 38.9276 62.6046 39.6283 61.4456 41.0335C60.2866 42.4388 59.7071 43.5678 59.7071 44.4286C59.7071 44.9531 59.9244 45.2133 60.3551 45.2133C60.9828 45.2133 62.0654 44.1283 63.5986 41.9544C64.4156 40.7773 64.8261 39.9766 64.8261 39.5482Z" fill="white"/>
<path d="M78.819 33.2465C75.8732 37.9067 74.0139 40.8854 73.2413 42.1826C72.4646 43.5038 72.0742 44.3365 72.0742 44.6808C72.0742 45.0331 72.2352 45.2093 72.5571 45.2093C73.2734 45.2093 74.4888 43.9682 76.2072 41.4859C76.2555 41.4099 76.2957 41.3698 76.336 41.3698C76.3842 41.3698 76.4084 41.3939 76.4084 41.4419C76.4003 41.4659 76.3601 41.53 76.2917 41.6301L75.7846 42.3227C74.2956 44.3645 73.201 45.3895 72.4927 45.3895C72.1305 45.3895 71.8368 45.2533 71.6074 44.9851C71.378 44.7169 71.2653 44.3685 71.2653 43.9482C71.2653 43.5278 71.4062 43.0393 71.6879 42.4828C70.3115 44.4206 69.2894 45.3935 68.6213 45.3935C68.2028 45.3935 67.8567 45.2173 67.571 44.861C67.2853 44.5047 67.1484 44.0563 67.1484 43.5198C67.1484 42.2306 67.9533 41.0616 69.567 40.0126C70.8468 39.1758 71.8529 38.7595 72.5853 38.7595C73.0722 38.7595 73.3177 38.9957 73.3177 39.4641C73.3177 39.6843 73.2493 39.9285 73.1165 40.2048L77.3259 33.1904C77.5835 33.2705 77.841 33.3065 78.0906 33.3065C78.1509 33.2945 78.3964 33.2785 78.819 33.2465ZM73.1366 39.5482C73.1366 39.1318 72.9435 38.9276 72.5571 38.9276C71.8488 38.9276 70.9152 39.6283 69.7562 41.0335C68.5972 42.4388 68.0177 43.5678 68.0177 44.4286C68.0177 44.9531 68.235 45.2133 68.6656 45.2133C69.2934 45.2133 70.3759 44.1283 71.9092 41.9544C72.7302 40.7773 73.1366 39.9766 73.1366 39.5482Z" fill="white"/>
<path d="M80.4643 41.4418C80.4563 41.4658 80.416 41.5299 80.3476 41.63L79.8405 42.3226C78.3596 44.3645 77.2328 45.3894 76.4521 45.3894C76.0818 45.3894 75.772 45.2573 75.5265 44.997C75.281 44.7368 75.1562 44.4085 75.1562 44.0161C75.1562 43.5637 75.4259 42.8751 75.9692 41.9503L77.8083 38.8435C78.0538 38.8995 78.2429 38.9275 78.3878 38.9275C78.601 38.9275 78.8989 38.8995 79.2852 38.8435L76.609 43.2194C76.2227 43.852 76.0295 44.3404 76.0295 44.6848C76.0295 45.0371 76.2146 45.2132 76.5849 45.2132C77.2851 45.2132 78.5165 43.9721 80.2792 41.4899C80.3194 41.4138 80.3597 41.3738 80.3959 41.3738C80.4402 41.3697 80.4643 41.3938 80.4643 41.4418ZM80.2953 36.5894C80.2953 36.8617 80.1786 37.1179 79.9492 37.3581C79.7158 37.5983 79.4623 37.7144 79.1886 37.7144C78.8345 37.7144 78.6574 37.5383 78.6574 37.186C78.6574 36.9297 78.7781 36.6815 79.0236 36.4413C79.2691 36.2011 79.5226 36.085 79.7882 36.085C80.1263 36.085 80.2953 36.2571 80.2953 36.5894Z" fill="white"/>
<path d="M89.9341 41.4415C89.9341 41.6057 89.3627 42.3663 88.2238 43.7196C87.2861 44.8326 86.5497 45.3891 86.0185 45.3891C85.6643 45.3891 85.3665 45.253 85.1291 44.9767C84.8917 44.7005 84.7709 44.3682 84.7709 43.9678C84.7709 43.6155 84.8434 43.2912 84.9882 42.9869C85.1331 42.6866 85.5114 42.0901 86.1271 41.1973C86.763 40.2604 87.0809 39.6599 87.0809 39.4037C87.0809 39.0834 86.9119 38.9232 86.5738 38.9232C85.4269 38.9232 83.6562 41.0411 81.2698 45.281C80.8834 45.249 80.6541 45.2329 80.5736 45.2329C80.2999 45.2329 80.0383 45.249 79.7969 45.281L81.636 42.3824C82.6823 40.7249 83.2055 39.6879 83.2055 39.2755C83.2055 39.0393 83.1049 38.9232 82.9117 38.9232C82.5093 38.9232 81.7165 39.764 80.5374 41.4495C80.4649 41.5496 80.4126 41.6057 80.3724 41.6137C80.3321 41.6137 80.308 41.5896 80.2999 41.5416C80.308 41.5016 80.3241 41.4695 80.3482 41.4495L80.5736 41.1573C81.7768 39.5518 82.5898 38.7471 83.0043 38.7471C83.2739 38.7471 83.4993 38.8672 83.6884 39.1114C83.8775 39.3556 83.9701 39.6439 83.9701 39.9802C83.9701 40.4806 83.6763 41.1773 83.0847 42.0661C84.0103 40.7929 84.7267 39.9201 85.2257 39.4517C85.7247 38.9833 86.1875 38.7471 86.61 38.7471C86.9561 38.7471 87.2459 38.8872 87.4833 39.1675C87.7208 39.4477 87.8375 39.796 87.8375 40.2124C87.8375 40.7369 87.4753 41.5376 86.7509 42.6186C86.0104 43.7196 85.6442 44.4242 85.6442 44.7285C85.6442 45.0488 85.8052 45.2089 86.1271 45.2089C86.8274 45.2089 88.0347 43.9678 89.753 41.4856C89.7933 41.4095 89.8335 41.3694 89.8697 41.3694C89.91 41.3694 89.9341 41.3935 89.9341 41.4415Z" fill="white"/>
<path d="M97.9993 41.4544C97.9993 41.5785 97.5727 42.115 96.7236 43.0599C95.7698 44.1048 94.5383 45.0376 93.0292 45.8584L92.4417 46.9274C91.3712 48.8891 90.176 50.4025 88.8439 51.4675C87.5723 52.4924 86.4696 53.0049 85.544 53.0049C85.206 53.0049 84.9283 52.9048 84.7069 52.7006C84.4856 52.4964 84.377 52.2482 84.377 51.9479C84.377 50.3464 86.1959 48.717 89.8339 47.0675C90.6187 46.7072 91.1257 46.4669 91.3551 46.3388L93.3592 42.6675C92.4859 43.8165 91.8702 44.5572 91.5161 44.8895C91.1619 45.2218 90.7917 45.39 90.4134 45.39C90.0029 45.39 89.6569 45.2098 89.3711 44.8495C89.0854 44.4891 88.9405 44.0527 88.9405 43.5363C88.9405 42.1831 89.8299 40.9539 91.6046 39.8529C92.7918 39.1163 93.7214 38.752 94.3975 38.752C94.8683 38.752 95.1058 39.0082 95.1058 39.5247C95.1058 39.6648 95.0696 39.8329 95.0011 40.0291L95.6611 38.844C95.8744 38.9001 96.0595 38.9281 96.2165 38.9281C96.4217 38.9281 96.7195 38.9001 97.1139 38.844C97.0576 38.9161 96.7115 39.5006 96.0756 40.6016L93.15 45.6222C94.1802 45.0456 95.0011 44.4851 95.6209 43.9487C96.2406 43.4122 96.9368 42.6315 97.7135 41.6185C97.8302 41.4624 97.9107 41.3823 97.951 41.3823C97.9791 41.3903 97.9993 41.4144 97.9993 41.4544ZM91.2344 46.539C91.0855 46.6231 90.6428 46.8473 89.9023 47.2076C86.3167 48.9732 84.5259 50.5626 84.5259 51.9679C84.5259 52.2081 84.6144 52.4123 84.7955 52.5765C84.9766 52.7406 85.21 52.8247 85.4917 52.8247C86.3569 52.8247 87.198 52.3843 88.0149 51.5035C88.8319 50.6227 89.8581 49.0453 91.0935 46.7712L91.2344 46.539ZM94.973 39.5247C94.973 39.1243 94.7798 38.9281 94.3935 38.9281C93.6852 38.9281 92.7475 39.6287 91.5805 41.034C90.4134 42.4393 89.8299 43.5683 89.8299 44.4291C89.8299 44.9536 90.0593 45.2138 90.514 45.2138C90.9768 45.2138 91.7656 44.5172 92.8723 43.1279C94.2727 41.3663 94.973 40.1652 94.973 39.5247Z" fill="white"/>
</g>
<defs>
<clipPath id="clip0">
<rect width="98" height="53" fill="white"/>
</clipPath>
</defs>
</svg>
