<svg width="291" height="86" viewBox="0 0 291 86" fill="none" xmlns="http://www.w3.org/2000/svg">
<path d="M0 5C0 2.23858 2.23858 0 5 0H286C288.761 0 291 2.23858 291 5V81C291 83.7614 288.761 86 286 86H4.99999C2.23857 86 0 83.7614 0 81V5Z" fill="black"/>
<path d="M146.871 46.765C141.801 46.765 137.669 50.6113 137.669 55.9089C137.669 61.1743 141.801 65.0529 146.871 65.0529C151.943 65.0529 156.075 61.1743 156.075 55.9089C156.073 50.6113 151.941 46.765 146.871 46.765ZM146.871 61.4538C144.092 61.4538 141.698 59.1683 141.698 55.9111C141.698 52.6194 144.095 50.3684 146.871 50.3684C149.649 50.3684 152.044 52.6194 152.044 55.9111C152.044 59.1662 149.649 61.4538 146.871 61.4538ZM126.794 46.765C121.724 46.765 117.592 50.6113 117.592 55.9089C117.592 61.1743 121.724 65.0529 126.794 65.0529C131.866 65.0529 135.998 61.1743 135.998 55.9089C135.998 50.6113 131.866 46.765 126.794 46.765ZM126.794 61.4538C124.016 61.4538 121.621 59.1683 121.621 55.9111C121.621 52.6194 124.018 50.3684 126.794 50.3684C129.573 50.3684 131.967 52.6194 131.967 55.9111C131.97 59.1662 129.573 61.4538 126.794 61.4538ZM102.915 49.5729V53.4515H112.222C111.944 55.6337 111.216 57.2269 110.104 58.3341C108.75 59.6843 106.631 61.1743 102.915 61.1743C97.1853 61.1743 92.7061 56.5668 92.7061 50.8521C92.7061 45.1374 97.1853 40.53 102.915 40.53C106.006 40.53 108.263 41.7426 109.929 43.3013L112.673 40.5644C110.345 38.3477 107.256 36.6514 102.915 36.6514C95.0664 36.6514 88.4683 43.024 88.4683 50.8521C88.4683 58.6803 95.0664 65.0529 102.915 65.0529C107.15 65.0529 110.347 63.6661 112.845 61.0689C115.415 58.5061 116.215 54.9027 116.215 51.9938C116.215 51.0951 116.146 50.263 116.005 49.5707H102.915V49.5729ZM200.579 52.585C199.816 50.5425 197.488 46.765 192.73 46.765C188.008 46.765 184.082 50.4716 184.082 55.9089C184.082 61.0345 187.973 65.0529 193.181 65.0529C197.382 65.0529 199.813 62.4901 200.822 61.0001L197.697 58.9211C196.656 60.4454 195.231 61.4495 193.181 61.4495C191.133 61.4495 189.674 60.5142 188.736 58.6781L200.995 53.6213L200.579 52.585ZM188.076 55.6337C187.973 52.0991 190.82 50.2996 192.87 50.2996C194.468 50.2996 195.821 51.0972 196.274 52.2389L188.076 55.6337ZM178.111 64.5003H182.138V37.6232H178.111V64.5003ZM171.511 48.8096H171.373C170.47 47.7346 168.733 46.765 166.547 46.765C161.962 46.765 157.761 50.7833 157.761 55.9455C157.761 61.0711 161.962 65.055 166.547 65.055C168.735 65.055 170.47 64.0854 171.373 62.9781H171.511V64.2939C171.511 67.792 169.636 69.6625 166.616 69.6625C164.15 69.6625 162.622 67.8973 161.996 66.4074L158.489 67.8629C159.496 70.286 162.169 73.2659 166.616 73.2659C171.339 73.2659 175.333 70.4945 175.333 63.7392V47.3218H171.513V48.8096H171.511ZM166.894 61.4538C164.115 61.4538 161.789 59.1318 161.789 55.9455C161.789 52.7226 164.115 50.3684 166.894 50.3684C169.636 50.3684 171.789 52.7226 171.789 55.9455C171.789 59.1318 169.636 61.4538 166.894 61.4538ZM219.448 37.6232H209.811V64.5003H213.831V54.3179H219.446C223.904 54.3179 228.288 51.0994 228.288 45.9716C228.288 40.8439 223.906 37.6232 219.448 37.6232ZM219.552 50.5769H213.831V41.3642H219.552C222.559 41.3642 224.266 43.8474 224.266 45.9716C224.266 48.0528 222.559 50.5769 219.552 50.5769ZM244.41 46.7177C241.498 46.7177 238.482 47.9969 237.234 50.8328L240.804 52.3184C241.567 50.8328 242.989 50.3469 244.479 50.3469C246.559 50.3469 248.673 51.5917 248.708 53.8041V54.0814C247.979 53.6665 246.419 53.0451 244.513 53.0451C240.666 53.0451 236.747 55.1543 236.747 59.0952C236.747 62.6922 239.902 65.0077 243.438 65.0077C246.141 65.0077 247.632 63.7973 248.568 62.3783H248.706V64.453H252.59V54.1481C252.592 49.3794 249.018 46.7177 244.41 46.7177ZM243.923 61.4473C242.608 61.4473 240.769 60.7894 240.769 59.164C240.769 57.0893 243.058 56.2938 245.035 56.2938C246.8 56.2938 247.634 56.6743 248.708 57.1925C248.395 59.6843 246.246 61.4473 243.923 61.4473ZM266.735 47.3046L262.124 58.9576H261.986L257.201 47.3046H252.868L260.044 63.5909L255.953 72.651H260.147L271.208 47.3046H266.735ZM230.509 64.5003H234.529V37.6232H230.509V64.5003Z" fill="white"/>
<path d="M102.212 22.0224C102.212 23.8241 101.678 25.2581 100.606 26.3288C99.3907 27.6016 97.8042 28.238 95.8556 28.238C93.9889 28.238 92.4002 27.593 91.0961 26.303C89.7899 25.0109 89.1367 23.4113 89.1367 21.5021C89.1367 19.5907 89.7899 17.9911 91.0961 16.7011C92.4002 15.409 93.9889 14.764 95.8556 14.764C96.7825 14.764 97.6684 14.9446 98.5091 15.3036C99.3519 15.6648 100.027 16.1443 100.531 16.7441L99.395 17.8793C98.5393 16.8581 97.3602 16.3485 95.8534 16.3485C94.4911 16.3485 93.3142 16.8258 92.3205 17.7804C91.3268 18.735 90.831 19.9756 90.831 21.4999C90.831 23.0243 91.3268 24.2648 92.3205 25.2194C93.3142 26.174 94.4911 26.6513 95.8534 26.6513C97.2976 26.6513 98.5026 26.1719 99.4661 25.2108C100.091 24.5852 100.453 23.7144 100.55 22.5986H95.8534V21.0484H102.12C102.184 21.386 102.212 21.7106 102.212 22.0224Z" fill="white"/>
<path d="M112.15 16.6346H106.261V20.7239H111.572V22.274H106.261V26.3633H112.15V27.95H104.599V15.05H112.15V16.6346Z" fill="white"/>
<path d="M119.157 27.95H117.495V16.6346H113.882V15.05H122.77V16.6346H119.157V27.95Z" fill="white"/>
<path d="M129.2 27.95V15.05H130.862V27.95H129.2Z" fill="white"/>
<path d="M138.232 27.95H136.57V16.6346H132.957V15.05H141.845V16.6346H138.232V27.95Z" fill="white"/>
<path d="M158.668 26.2838C157.396 27.5867 155.816 28.2381 153.926 28.2381C152.036 28.2381 150.456 27.5867 149.186 26.2838C147.914 24.9809 147.28 23.3856 147.28 21.5C147.28 19.6145 147.914 18.0192 149.186 16.7163C150.456 15.4134 152.036 14.7598 153.926 14.7598C155.806 14.7598 157.384 15.4155 158.66 16.7249C159.936 18.0342 160.574 19.6252 160.574 21.5C160.574 23.3856 159.938 24.9809 158.668 26.2838ZM150.412 25.2023C151.37 26.1698 152.54 26.6514 153.926 26.6514C155.312 26.6514 156.485 26.1677 157.44 25.2023C158.397 24.2348 158.877 23.0007 158.877 21.5C158.877 19.9993 158.397 18.7652 157.44 17.7977C156.485 16.8302 155.312 16.3486 153.926 16.3486C152.54 16.3486 151.37 16.8324 150.412 17.7977C149.458 18.7652 148.977 19.9993 148.977 21.5C148.977 23.0007 149.458 24.2348 150.412 25.2023Z" fill="white"/>
<path d="M162.906 27.95V15.05H164.928L171.214 25.0841H171.285L171.214 22.5987V15.05H172.876V27.95H171.14L164.564 17.4279H164.493L164.564 19.9133V27.95H162.906Z" fill="white"/>
<path d="M102.212 22.0224C102.212 23.8241 101.678 25.2581 100.606 26.3288C99.3907 27.6016 97.8042 28.238 95.8556 28.238C93.9889 28.238 92.4002 27.593 91.0961 26.303C89.7899 25.0109 89.1367 23.4113 89.1367 21.5021C89.1367 19.5907 89.7899 17.9911 91.0961 16.7011C92.4002 15.409 93.9889 14.764 95.8556 14.764C96.7825 14.764 97.6684 14.9446 98.5091 15.3036C99.3519 15.6648 100.027 16.1443 100.531 16.7441L99.395 17.8793C98.5393 16.8581 97.3602 16.3485 95.8534 16.3485C94.4911 16.3485 93.3142 16.8258 92.3205 17.7804C91.3268 18.735 90.831 19.9756 90.831 21.4999C90.831 23.0243 91.3268 24.2648 92.3205 25.2194C93.3142 26.174 94.4911 26.6513 95.8534 26.6513C97.2976 26.6513 98.5026 26.1719 99.4661 25.2108C100.091 24.5852 100.453 23.7144 100.55 22.5986H95.8534V21.0484H102.12C102.184 21.386 102.212 21.7106 102.212 22.0224Z" stroke="white" stroke-width="0.2" stroke-miterlimit="10"/>
<path d="M112.15 16.6346H106.261V20.7239H111.572V22.274H106.261V26.3633H112.15V27.95H104.599V15.05H112.15V16.6346Z" stroke="white" stroke-width="0.2" stroke-miterlimit="10"/>
<path d="M119.157 27.95H117.495V16.6346H113.882V15.05H122.77V16.6346H119.157V27.95Z" stroke="white" stroke-width="0.2" stroke-miterlimit="10"/>
<path d="M129.2 27.95V15.05H130.862V27.95H129.2Z" stroke="white" stroke-width="0.2" stroke-miterlimit="10"/>
<path d="M138.232 27.95H136.57V16.6346H132.957V15.05H141.845V16.6346H138.232V27.95Z" stroke="white" stroke-width="0.2" stroke-miterlimit="10"/>
<path d="M158.668 26.2838C157.396 27.5867 155.816 28.2381 153.926 28.2381C152.036 28.2381 150.456 27.5867 149.186 26.2838C147.914 24.9809 147.28 23.3856 147.28 21.5C147.28 19.6145 147.914 18.0192 149.186 16.7163C150.456 15.4134 152.036 14.7598 153.926 14.7598C155.806 14.7598 157.384 15.4155 158.66 16.7249C159.936 18.0342 160.574 19.6252 160.574 21.5C160.574 23.3856 159.938 24.9809 158.668 26.2838ZM150.412 25.2023C151.37 26.1698 152.54 26.6514 153.926 26.6514C155.312 26.6514 156.485 26.1677 157.44 25.2023C158.397 24.2348 158.877 23.0007 158.877 21.5C158.877 19.9993 158.397 18.7652 157.44 17.7977C156.485 16.8302 155.312 16.3486 153.926 16.3486C152.54 16.3486 151.37 16.8324 150.412 17.7977C149.458 18.7652 148.977 19.9993 148.977 21.5C148.977 23.0007 149.458 24.2348 150.412 25.2023Z" stroke="white" stroke-width="0.2" stroke-miterlimit="10"/>
<path d="M162.906 27.95V15.05H164.928L171.214 25.0841H171.285L171.214 22.5987V15.05H172.876V27.95H171.14L164.564 17.4279H164.493L164.564 19.9133V27.95H162.906Z" stroke="white" stroke-width="0.2" stroke-miterlimit="10"/>
<g filter="url(#filter0_ii)">
<path d="M22.4953 16.2068C21.8681 16.869 21.4973 17.8967 21.4973 19.2275V66.7769C21.4973 68.1099 21.8681 69.1355 22.4953 69.7977L22.6548 69.9525L49.36 43.3161V43.0022V42.6883L22.6548 16.0498L22.4953 16.2068Z" fill="url(#paint0_linear)"/>
<path d="M58.2604 52.1978L49.3601 43.3161V43.0022V42.6883L58.2625 33.8088L58.463 33.9228L69.0101 39.8998C72.0215 41.6069 72.0215 44.3997 69.0101 46.109L58.463 52.086L58.2604 52.1978Z" fill="url(#paint1_linear)"/>
<g filter="url(#filter1_i)">
<path d="M58.463 52.0838L49.3579 43.0022L22.4954 69.7977C23.4869 70.8469 25.1273 70.9759 26.9746 69.931L58.463 52.0838Z" fill="url(#paint2_linear)"/>
</g>
<path d="M58.463 33.9206L26.9746 16.0756C25.1273 15.0285 23.4869 15.1597 22.4954 16.2089L49.36 43.0043L58.463 33.9206Z" fill="url(#paint3_linear)"/>
</g>
<path d="M5 1H286V-1H5V1ZM290 5V81H292V5H290ZM286 85H4.99999V87H286V85ZM1 81V5H-1V81H1ZM4.99999 85C2.79086 85 1 83.2091 1 81H-1C-1 84.3137 1.68628 87 4.99999 87V85ZM290 81C290 83.2091 288.209 85 286 85V87C289.314 87 292 84.3137 292 81H290ZM286 1C288.209 1 290 2.79086 290 5H292C292 1.68629 289.314 -1 286 -1V1ZM5 -1C1.68629 -1 -1 1.68629 -1 5H1C1 2.79086 2.79086 1 5 1V-1Z" fill="#A6A6A6"/>
<defs>
<filter id="filter0_ii" x="21.4973" y="15.353" width="49.7713" height="55.2996" filterUnits="userSpaceOnUse" color-interpolation-filters="sRGB">
<feFlood flood-opacity="0" result="BackgroundImageFix"/>
<feBlend mode="normal" in="SourceGraphic" in2="BackgroundImageFix" result="shape"/>
<feColorMatrix in="SourceAlpha" type="matrix" values="0 0 0 0 0 0 0 0 0 0 0 0 0 0 0 0 0 0 127 0" result="hardAlpha"/>
<feOffset dy="-0.15"/>
<feComposite in2="hardAlpha" operator="arithmetic" k2="-1" k3="1"/>
<feColorMatrix type="matrix" values="0 0 0 0 0 0 0 0 0 0 0 0 0 0 0 0 0 0 0.12 0"/>
<feBlend mode="normal" in2="shape" result="effect1_innerShadow"/>
<feColorMatrix in="SourceAlpha" type="matrix" values="0 0 0 0 0 0 0 0 0 0 0 0 0 0 0 0 0 0 127 0" result="hardAlpha"/>
<feOffset dy="0.15"/>
<feComposite in2="hardAlpha" operator="arithmetic" k2="-1" k3="1"/>
<feColorMatrix type="matrix" values="0 0 0 0 1 0 0 0 0 1 0 0 0 0 1 0 0 0 0.25 0"/>
<feBlend mode="normal" in2="effect1_innerShadow" result="effect2_innerShadow"/>
</filter>
<filter id="filter1_i" x="22.4954" y="43.0022" width="35.9676" height="27.6505" filterUnits="userSpaceOnUse" color-interpolation-filters="sRGB">
<feFlood flood-opacity="0" result="BackgroundImageFix"/>
<feBlend mode="normal" in="SourceGraphic" in2="BackgroundImageFix" result="shape"/>
<feColorMatrix in="SourceAlpha" type="matrix" values="0 0 0 0 0 0 0 0 0 0 0 0 0 0 0 0 0 0 127 0" result="hardAlpha"/>
<feOffset dy="-0.15"/>
<feComposite in2="hardAlpha" operator="arithmetic" k2="-1" k3="1"/>
<feColorMatrix type="matrix" values="0 0 0 0 0 0 0 0 0 0 0 0 0 0 0 0 0 0 0.08 0"/>
<feBlend mode="normal" in2="shape" result="effect1_innerShadow"/>
</filter>
<linearGradient id="paint0_linear" x1="46.9928" y1="18.7244" x2="10.9116" y2="54.8988" gradientUnits="userSpaceOnUse">
<stop stop-color="#00A0FF"/>
<stop offset="0.0066" stop-color="#00A1FF"/>
<stop offset="0.2601" stop-color="#00BEFF"/>
<stop offset="0.5122" stop-color="#00D2FF"/>
<stop offset="0.7604" stop-color="#00DFFF"/>
<stop offset="1" stop-color="#00E3FF"/>
</linearGradient>
<linearGradient id="paint1_linear" x1="72.93" y1="43.0022" x2="20.7744" y2="43.0022" gradientUnits="userSpaceOnUse">
<stop stop-color="#FFE000"/>
<stop offset="0.4087" stop-color="#FFBD00"/>
<stop offset="0.7754" stop-color="#FFA500"/>
<stop offset="1" stop-color="#FF9C00"/>
</linearGradient>
<linearGradient id="paint2_linear" x1="53.5183" y1="47.9341" x2="4.58772" y2="96.9911" gradientUnits="userSpaceOnUse">
<stop stop-color="#FF3A44"/>
<stop offset="1" stop-color="#C31162"/>
</linearGradient>
<linearGradient id="paint3_linear" x1="15.7299" y1="0.380162" x2="37.5788" y2="22.2855" gradientUnits="userSpaceOnUse">
<stop stop-color="#32A071"/>
<stop offset="0.0685" stop-color="#2DA771"/>
<stop offset="0.4762" stop-color="#15CF74"/>
<stop offset="0.8009" stop-color="#06E775"/>
<stop offset="1" stop-color="#00F076"/>
</linearGradient>
</defs>
</svg>
