<svg width="296" height="97" viewBox="0 0 296 97" fill="none" xmlns="http://www.w3.org/2000/svg">
<path d="M0 7.5C0 5.17029 0 4.00544 0.380602 3.08658C0.888072 1.86144 1.86144 0.888072 3.08658 0.380602C4.00544 0 5.17029 0 7.5 0H288.5C290.83 0 291.995 0 292.913 0.380602C294.139 0.888072 295.112 1.86144 295.619 3.08658C296 4.00544 296 5.17029 296 7.5V89.5C296 91.8297 296 92.9946 295.619 93.9134C295.112 95.1386 294.139 96.1119 292.913 96.6194C291.995 97 290.83 97 288.5 97H7.49999C5.17029 97 4.00544 97 3.08658 96.6194C1.86144 96.1119 0.888072 95.1386 0.380602 93.9134C0 92.9946 0 91.8297 0 89.5V7.5Z" fill="#0C0D10"/>
<path d="M201.097 46.5624V52.1181H197.555V55.7615H201.097V68.1411C201.097 72.3682 203.042 74.0591 207.936 74.0591C208.796 74.0591 209.615 73.9585 210.331 73.8377V70.2345C209.717 70.2949 209.328 70.3352 208.653 70.3352C206.462 70.3352 205.499 69.3287 205.499 67.034V55.7615H210.331V52.1181H205.499V46.5624H201.097Z" fill="white"/>
<path d="M222.798 74.3611C229.309 74.3611 233.301 70.0735 233.301 62.9678C233.301 55.9024 229.288 51.5947 222.798 51.5947C216.287 51.5947 212.273 55.9024 212.273 62.9678C212.273 70.0735 216.266 74.3611 222.798 74.3611ZM222.798 70.5163C218.969 70.5163 216.819 67.7586 216.819 62.9678C216.819 58.2173 218.969 55.4394 222.798 55.4394C226.606 55.4394 228.776 58.2173 228.776 62.9678C228.776 67.7385 226.606 70.5163 222.798 70.5163Z" fill="white"/>
<path d="M236.718 73.9383H241.12V60.9951C241.12 57.9153 243.474 55.842 246.812 55.842C247.59 55.842 248.9 55.9829 249.269 56.1037V51.8363C248.798 51.7155 247.958 51.6551 247.303 51.6551C244.396 51.6551 241.918 53.2252 241.284 55.379H240.956V52.0174H236.718V73.9383Z" fill="white"/>
<path d="M260.199 55.2784C263.455 55.2784 265.584 57.5128 265.687 60.9549H254.425C254.671 57.5329 256.944 55.2784 260.199 55.2784ZM265.666 68.0203C264.847 69.7313 263.025 70.6774 260.363 70.6774C256.841 70.6774 254.569 68.2417 254.425 64.397V64.1555H270.171V62.6458C270.171 55.7615 266.424 51.5947 260.22 51.5947C253.934 51.5947 249.941 56.0433 249.941 63.0483C249.941 70.0534 253.852 74.3611 260.24 74.3611C265.339 74.3611 268.901 71.9455 269.905 68.0203H265.666Z" fill="white"/>
<path d="M172.228 65.8433C172.568 71.2261 177.131 74.6686 183.922 74.6686C191.18 74.6686 195.721 71.0592 195.721 65.3008C195.721 60.7735 193.132 58.2698 186.85 56.8303L183.476 56.0166C179.486 55.0986 177.873 53.8676 177.873 51.7187C177.873 49.0064 180.378 47.233 184.134 47.233C187.699 47.233 190.161 48.9647 190.607 51.7396H195.233C194.957 46.6697 190.416 43.1021 184.198 43.1021C177.513 43.1021 173.056 46.6697 173.056 52.0316C173.056 56.4547 175.581 59.0835 181.12 60.3562L185.068 61.295C189.121 62.2339 190.904 63.6109 190.904 65.9059C190.904 68.5764 188.102 70.5167 184.282 70.5167C180.187 70.5167 177.343 68.7016 176.94 65.8433H172.228Z" fill="white"/>
<path d="M126.626 51.6551C123.596 51.6551 120.975 53.1447 119.624 55.6407H119.296V52.0174H115.058V81.2252H119.46V70.617H119.808C120.975 72.9319 123.493 74.3007 126.667 74.3007C132.298 74.3007 135.881 69.9326 135.881 62.9678C135.881 56.0031 132.298 51.6551 126.626 51.6551ZM125.377 70.4157C121.692 70.4157 119.378 67.5573 119.378 62.988C119.378 58.3984 121.692 55.5401 125.398 55.5401C129.124 55.5401 131.356 58.3381 131.356 62.9678C131.356 67.6177 129.124 70.4157 125.377 70.4157Z" fill="white"/>
<path d="M151.285 51.6551C148.255 51.6551 145.634 53.1447 144.282 55.6407H143.955V52.0174H139.716V81.2252H144.119V70.617H144.467C145.634 72.9319 148.152 74.3007 151.326 74.3007C156.957 74.3007 160.54 69.9326 160.54 62.9678C160.54 56.0031 156.957 51.6551 151.285 51.6551ZM150.036 70.4157C146.35 70.4157 144.037 67.5573 144.037 62.988C144.037 58.3984 146.35 55.5401 150.056 55.5401C153.783 55.5401 156.015 58.3381 156.015 62.9678C156.015 67.6177 153.783 70.4157 150.036 70.4157Z" fill="white"/>
<path d="M107.159 73.9383H112.21L101.154 43.8323H96.0391L84.9824 73.9383H89.8635L92.686 65.9476H104.358L107.159 73.9383ZM98.3523 49.2985H98.7131L103.148 62.0253H93.8957L98.3523 49.2985Z" fill="white"/>
<path d="M87.9395 21.124V35.6474H93.2733C97.6754 35.6474 100.225 32.9802 100.225 28.3404C100.225 23.771 97.655 21.124 93.2733 21.124H87.9395ZM90.2327 23.1772H93.0173C96.0784 23.1772 97.8904 25.0895 97.8904 28.3706C97.8904 31.702 96.1091 33.5942 93.0173 33.5942H90.2327V23.1772Z" fill="white"/>
<path d="M108.032 35.8587C111.287 35.8587 113.284 33.715 113.284 30.1621C113.284 26.6294 111.277 24.4756 108.032 24.4756C104.776 24.4756 102.77 26.6294 102.77 30.1621C102.77 33.715 104.766 35.8587 108.032 35.8587ZM108.032 33.9364C106.117 33.9364 105.042 32.5575 105.042 30.1621C105.042 27.7868 106.117 26.3979 108.032 26.3979C109.936 26.3979 111.021 27.7868 111.021 30.1621C111.021 32.5474 109.936 33.9364 108.032 33.9364Z" fill="white"/>
<path d="M130.284 24.6869H128.083L126.097 33.0507H125.923L123.63 24.6869H121.521L119.228 33.0507H119.064L117.068 24.6869H114.836L117.907 35.6474H120.17L122.463 27.5755H122.637L124.94 35.6474H127.223L130.284 24.6869Z" fill="white"/>
<path d="M132.819 35.6474H135.02V29.2362C135.02 27.5252 136.054 26.4583 137.682 26.4583C139.31 26.4583 140.088 27.3339 140.088 29.0953V35.6474H142.289V28.5518C142.289 25.945 140.917 24.4756 138.429 24.4756C136.75 24.4756 135.645 25.2103 135.102 26.4281H134.938V24.6869H132.819V35.6474Z" fill="white"/>
<path d="M145.755 35.6474H147.957V20.4094H145.755V35.6474Z" fill="white"/>
<path d="M156.235 35.8587C159.49 35.8587 161.487 33.715 161.487 30.1621C161.487 26.6294 159.48 24.4756 156.235 24.4756C152.979 24.4756 150.973 26.6294 150.973 30.1621C150.973 33.715 152.969 35.8587 156.235 35.8587ZM156.235 33.9364C154.32 33.9364 153.245 32.5575 153.245 30.1621C153.245 27.7868 154.32 26.3979 156.235 26.3979C158.139 26.3979 159.224 27.7868 159.224 30.1621C159.224 32.5474 158.139 33.9364 156.235 33.9364Z" fill="white"/>
<path d="M168.045 34.0068C166.847 34.0068 165.977 33.4331 165.977 32.4468C165.977 31.4806 166.673 30.9673 168.209 30.8666L170.932 30.6955V31.6114C170.932 32.9702 169.703 34.0068 168.045 34.0068ZM167.482 35.8285C168.946 35.8285 170.164 35.2045 170.829 34.1075H171.003V35.6474H173.123V28.1592C173.123 25.8444 171.546 24.4756 168.751 24.4756C166.223 24.4756 164.421 25.6833 164.195 27.5654H166.325C166.571 26.7904 167.42 26.3476 168.649 26.3476C170.154 26.3476 170.932 27.0018 170.932 28.1592V29.1053L167.912 29.2764C165.26 29.4375 163.765 30.5748 163.765 32.5474C163.765 34.5503 165.332 35.8285 167.482 35.8285Z" fill="white"/>
<path d="M180.592 35.8285C182.128 35.8285 183.428 35.1139 184.093 33.9162H184.267V35.6474H186.376V20.4094H184.175V26.4281H184.011C183.407 25.2203 182.117 24.5058 180.592 24.5058C177.777 24.5058 175.965 26.6999 175.965 30.1621C175.965 33.6344 177.756 35.8285 180.592 35.8285ZM181.217 26.4482C183.059 26.4482 184.216 27.8875 184.216 30.1722C184.216 32.4669 183.07 33.8861 181.217 33.8861C179.353 33.8861 178.237 32.4871 178.237 30.1621C178.237 27.8573 179.364 26.4482 181.217 26.4482Z" fill="white"/>
<path d="M200.65 35.8587C203.905 35.8587 205.902 33.715 205.902 30.1621C205.902 26.6294 203.895 24.4756 200.65 24.4756C197.394 24.4756 195.387 26.6294 195.387 30.1621C195.387 33.715 197.384 35.8587 200.65 35.8587ZM200.65 33.9364C198.735 33.9364 197.66 32.5575 197.66 30.1621C197.66 27.7868 198.735 26.3979 200.65 26.3979C202.554 26.3979 203.639 27.7868 203.639 30.1621C203.639 32.5474 202.554 33.9364 200.65 33.9364Z" fill="white"/>
<path d="M208.815 35.6474H211.016V29.2362C211.016 27.5252 212.05 26.4583 213.678 26.4583C215.306 26.4583 216.084 27.3339 216.084 29.0953V35.6474H218.285V28.5518C218.285 25.945 216.913 24.4756 214.425 24.4756C212.746 24.4756 211.641 25.2103 211.098 26.4281H210.934V24.6869H208.815V35.6474Z" fill="white"/>
<path d="M228.422 21.9594V24.7372H226.651V26.559H228.422V32.7487C228.422 34.8623 229.395 35.7078 231.842 35.7078C232.272 35.7078 232.681 35.6574 233.039 35.5971V33.7955C232.732 33.8257 232.538 33.8458 232.2 33.8458C231.105 33.8458 230.623 33.3426 230.623 32.1952V26.559H233.039V24.7372H230.623V21.9594H228.422Z" fill="white"/>
<path d="M235.994 35.6474H238.195V29.2462C238.195 27.5856 239.198 26.4684 241 26.4684C242.556 26.4684 243.386 27.3541 243.386 29.1053V35.6474H245.587V28.5719C245.587 25.9651 244.123 24.4856 241.748 24.4856C240.069 24.4856 238.891 25.2203 238.349 26.4482H238.175V20.4094H235.994V35.6474Z" fill="white"/>
<path d="M253.527 26.3174C255.155 26.3174 256.219 27.4346 256.271 29.1556H250.64C250.763 27.4446 251.899 26.3174 253.527 26.3174ZM256.26 32.6884C255.851 33.5439 254.94 34.0169 253.609 34.0169C251.848 34.0169 250.712 32.7991 250.64 30.8767V30.7559H258.513V30.0011C258.513 26.559 256.639 24.4756 253.537 24.4756C250.394 24.4756 248.398 26.6999 248.398 30.2024C248.398 33.7049 250.353 35.8587 253.547 35.8587C256.097 35.8587 257.878 34.651 258.38 32.6884H256.26Z" fill="white"/>
<path d="M61.0968 49.2296C61.1503 45.1532 63.3771 41.296 66.9097 39.1608C64.6811 36.0318 60.9484 34.0479 57.0648 33.9285C52.9227 33.501 48.9071 36.3652 46.7963 36.3652C44.6447 36.3652 41.3949 33.9709 37.8954 34.0417C33.3339 34.1866 29.0814 36.7362 26.8622 40.6568C22.0916 48.7767 25.65 60.7102 30.2198 67.2738C32.5061 70.4877 35.1782 74.0778 38.6746 73.9505C42.096 73.811 43.3739 71.8057 47.5038 71.8057C51.5954 71.8057 52.7943 73.9505 56.3616 73.8696C60.0329 73.811 62.3461 70.6413 64.5522 67.3969C66.1949 65.1068 67.459 62.5758 68.2976 59.8976C63.9831 58.1036 61.1019 53.835 61.0968 49.2296Z" fill="white"/>
<path d="M54.3587 29.612C56.3605 27.2495 57.3467 24.213 57.1079 21.1472C54.0496 21.463 51.2247 22.9 49.1959 25.1718C47.212 27.3914 46.1795 30.3746 46.3747 33.3231C49.4341 33.3541 52.4417 31.9561 54.3587 29.612Z" fill="white"/>
<path d="M3.08658 96.6194L3.46927 95.6955L3.08658 96.6194ZM0.380602 93.9134L-0.543277 94.2961L0.380602 93.9134ZM295.619 93.9134L296.543 94.2961L295.619 93.9134ZM292.913 96.6194L293.296 97.5433L292.913 96.6194ZM292.913 0.380602L292.531 1.30448L292.913 0.380602ZM295.619 3.08658L294.696 3.46927L295.619 3.08658ZM7.5 1H288.5V-1H7.5V1ZM295 7.5V89.5H297V7.5H295ZM288.5 96H7.49999V98H288.5V96ZM1 89.5V7.5H-1V89.5H1ZM7.49999 96C6.32146 96 5.48764 95.9995 4.83229 95.9547C4.18592 95.9106 3.78654 95.8269 3.46927 95.6955L2.7039 97.5433C3.30548 97.7925 3.94795 97.8991 4.69615 97.9501C5.43537 98.0005 6.34882 98 7.49999 98V96ZM-1 89.5C-1 90.6512 -1.00054 91.5646 -0.950105 92.3038C-0.899056 93.052 -0.792462 93.6945 -0.543277 94.2961L1.30448 93.5307C1.17306 93.2135 1.08936 92.8141 1.04526 92.1677C1.00054 91.5124 1 90.6785 1 89.5H-1ZM3.46927 95.6955C2.48915 95.2895 1.71046 94.5108 1.30448 93.5307L-0.543277 94.2961C0.0656865 95.7663 1.23373 96.9343 2.7039 97.5433L3.46927 95.6955ZM295 89.5C295 90.6785 294.999 91.5124 294.955 92.1677C294.911 92.8141 294.827 93.2135 294.696 93.5307L296.543 94.2961C296.792 93.6945 296.899 93.052 296.95 92.3038C297.001 91.5646 297 90.6512 297 89.5H295ZM288.5 98C289.651 98 290.565 98.0005 291.304 97.9501C292.052 97.8991 292.695 97.7925 293.296 97.5433L292.531 95.6955C292.213 95.8269 291.814 95.9106 291.168 95.9547C290.512 95.9995 289.679 96 288.5 96V98ZM294.696 93.5307C294.29 94.5108 293.511 95.2895 292.531 95.6955L293.296 97.5433C294.766 96.9343 295.934 95.7663 296.543 94.2961L294.696 93.5307ZM288.5 1C289.679 1 290.512 1.00054 291.168 1.04526C291.814 1.08936 292.213 1.17306 292.531 1.30448L293.296 -0.543277C292.695 -0.792462 292.052 -0.899056 291.304 -0.950105C290.565 -1.00054 289.651 -1 288.5 -1V1ZM297 7.5C297 6.34883 297.001 5.43537 296.95 4.69615C296.899 3.94795 296.792 3.30548 296.543 2.7039L294.696 3.46927C294.827 3.78654 294.911 4.18592 294.955 4.83229C294.999 5.48764 295 6.32146 295 7.5H297ZM292.531 1.30448C293.511 1.71046 294.29 2.48915 294.696 3.46927L296.543 2.7039C295.934 1.23373 294.766 0.0656865 293.296 -0.543277L292.531 1.30448ZM7.5 -1C6.34883 -1 5.43537 -1.00054 4.69615 -0.950105C3.94795 -0.899056 3.30548 -0.792462 2.7039 -0.543277L3.46927 1.30448C3.78654 1.17306 4.18592 1.08936 4.83229 1.04526C5.48764 1.00054 6.32146 1 7.5 1V-1ZM1 7.5C1 6.32146 1.00054 5.48764 1.04526 4.83229C1.08936 4.18592 1.17306 3.78654 1.30448 3.46927L-0.543277 2.7039C-0.792462 3.30548 -0.899056 3.94795 -0.950105 4.69615C-1.00054 5.43537 -1 6.34883 -1 7.5H1ZM2.7039 -0.543277C1.23373 0.0656865 0.0656865 1.23373 -0.543277 2.7039L1.30448 3.46927C1.71046 2.48915 2.48915 1.71046 3.46927 1.30448L2.7039 -0.543277Z" fill="#A6A6A6"/>
</svg>
