<svg width="96" height="96" viewBox="0 0 96 96" fill="none" xmlns="http://www.w3.org/2000/svg">
<path d="M44 32L36.4223 28.2111C36.1446 28.0723 35.8384 28 35.5279 28H28.8284C28.298 28 27.7893 28.2107 27.4142 28.5858L20.5858 35.4142C20.2107 35.7893 20 36.298 20 36.8284L20 62.9296C20 63.5983 20.3342 64.2228 20.8906 64.5937L42.7575 79.1716C43.4944 79.663 44.4668 79.611 45.1472 79.044L68 60" stroke="#5E194E"/>
<path fill-rule="evenodd" clip-rule="evenodd" d="M54.6512 47.4142C54.0478 46.6062 52.9373 46.3739 52.0605 46.8721L37.3249 55.247C36.5423 55.6918 35.559 55.559 34.9224 54.9224L29.5486 49.5486C28.717 48.717 28.779 47.3509 29.6825 46.598L51.4437 28.4636C51.8032 28.164 52.2562 28 52.7241 28H59.5279C59.8384 28 60.1446 28.0723 60.4223 28.2111L74.8944 35.4472C75.572 35.786 76 36.4785 76 37.2361L76 69.9796C76 71.9037 73.5489 72.718 72.3976 71.1764L54.6512 47.4142Z" stroke="#5E194E"/>
<path d="M4 68V32" stroke="#5E194E" stroke-linecap="round"/>
<path d="M4 68V32" stroke="#5E194E" stroke-linecap="round"/>
<path d="M92 68V32" stroke="#5E194E" stroke-linecap="round"/>
</svg>
